# xmcd
#
# Track frame offsets:
#	182
#	14195
#	24510
#	36412
#	51872
#	65665
#	83442
#	94372
#	108977
#	127335
#
# Disc length: 1900 seconds
# Revision: 8
# Processed by: cddbd v1.5.2PL0 Copyright (c) Steve Scherf et al.
# Submitted via: dBpowerAMP V12.0
#
DISCID=8d076a0a
DTITLE=Randy Travis - No Holdin' Back
DYEAR=1989
DGENRE=Country
TTITLE0=Mining For Coal
TTITLE1=Singing The Blues
TTITLE2=When Your World Was Turning For Me
TTITLE3=He Walked On Water
TTITLE4=No Stoppin' Us Now
TTITLE5=It's Just A Matter Of Time
TTITLE6=Card Carryin' Fool
TTITLE7=Somewhere In My Broken Heart
TTITLE8=Hard Rock Bottom Of Your Heart
TTITLE9=Have A Nice Rest Of Your Life
EXTD=
EXTT0=
EXTT1=
EXTT2=
EXTT3=
EXTT4=
EXTT5=
EXTT6=
EXTT7=
EXTT8=
EXTT9=
PLAYORDER=
